<svg xmlns="http://www.w3.org/2000/svg" width="1100" height="565" viewBox="0 0 1100 565">
<rect width="1100" height="565" fill="white"/>
<g font-family="sans-serif" fill="#172536">
<text x="85" y="30" font-size="20">Matched-protocol accuracy vs approximate training compute</text>
<path d="M 85.0 65 V 460" stroke="#e1e5ea"/>
<text x="85.0" y="485" text-anchor="middle" font-size="13">10^19</text>
<path d="M 313.75 65 V 460" stroke="#e1e5ea"/>
<text x="313.75" y="485" text-anchor="middle" font-size="13">10^20</text>
<path d="M 542.5 65 V 460" stroke="#e1e5ea"/>
<text x="542.5" y="485" text-anchor="middle" font-size="13">10^21</text>
<path d="M 771.25 65 V 460" stroke="#e1e5ea"/>
<text x="771.25" y="485" text-anchor="middle" font-size="13">10^22</text>
<path d="M 1000.0 65 V 460" stroke="#e1e5ea"/>
<text x="1000.0" y="485" text-anchor="middle" font-size="13">10^23</text>
<path d="M 85 460.0 H 1000" stroke="#e1e5ea"/>
<text x="73" y="464.0" text-anchor="end" font-size="13">35%</text>
<path d="M 85 410.625 H 1000" stroke="#e1e5ea"/>
<text x="73" y="414.625" text-anchor="end" font-size="13">40%</text>
<path d="M 85 361.25 H 1000" stroke="#e1e5ea"/>
<text x="73" y="365.25" text-anchor="end" font-size="13">45%</text>
<path d="M 85 311.875 H 1000" stroke="#e1e5ea"/>
<text x="73" y="315.875" text-anchor="end" font-size="13">50%</text>
<path d="M 85 262.5 H 1000" stroke="#e1e5ea"/>
<text x="73" y="266.5" text-anchor="end" font-size="13">55%</text>
<path d="M 85 213.125 H 1000" stroke="#e1e5ea"/>
<text x="73" y="217.125" text-anchor="end" font-size="13">60%</text>
<path d="M 85 163.75 H 1000" stroke="#e1e5ea"/>
<text x="73" y="167.75" text-anchor="end" font-size="13">65%</text>
<path d="M 85 114.375 H 1000" stroke="#e1e5ea"/>
<text x="73" y="118.375" text-anchor="end" font-size="13">70%</text>
<path d="M 85 65.0 H 1000" stroke="#e1e5ea"/>
<text x="73" y="69.0" text-anchor="end" font-size="13">75%</text>
<polyline points="272.47504488804736,403.02672251652984 323.86406523298297,292.0177327038034 346.03223070857587,287.33453394125917 364.1449407419701,283.67825681507713 392.7246767411187,275.3005721244132 404.2920727387907,260.95532072759977 467.60803298199215,245.6511702202188" fill="none" stroke="#acb6c2" stroke-dasharray="5 5"/>
<circle cx="341.3341813127097" cy="299.43121041722907" r="5" fill="#008170"><title>ours_20b: 51.260%</title></circle>
<text x="348.3341813127097" y="292.43121041722907" font-size="10">ours_20b</text>
<circle cx="839.1165319051702" cy="284.45883519577" r="5" fill="#3469ac"><title>tinyllama_3t: 52.776%</title></circle>
<text x="846.1165319051702" y="277.45883519577" font-size="10">tinyllama_3t</text>
<circle cx="602.0571889635443" cy="330.596074535439" r="5" fill="#3469ac"><title>pythia_1b: 48.104%</title></circle>
<text x="609.0571889635443" y="323.596074535439" font-size="10">pythia_1b</text>
<circle cx="323.86406523298297" cy="313.4190140955187" r="5" fill="#3469ac"><title>dd_dclm_baseline_qc_20p_10000: 49.844%</title></circle>
<text x="330.86406523298297" y="306.4190140955187" font-size="10">dd_dclm_baseline_qc_20p_10000</text>
<circle cx="346.03223070857587" cy="298.21544223108" r="5" fill="#3469ac"><title>dd_dclm_baseline_qc_20p_12500: 51.383%</title></circle>
<text x="353.03223070857587" y="291.21544223108" font-size="10">dd_dclm_baseline_qc_20p_12500</text>
<circle cx="364.1449407419701" cy="291.91147338535984" r="5" fill="#3469ac"><title>dd_dclm_baseline_qc_20p_15000: 52.022%</title></circle>
<text x="371.1449407419701" y="284.91147338535984" font-size="10">dd_dclm_baseline_qc_20p_15000</text>
<circle cx="272.47504488804736" cy="403.02672251652984" r="5" fill="#3469ac"><title>tinyllama_early_10b: 40.769%</title></circle>
<text x="279.47504488804736" y="396.02672251652984" font-size="10">tinyllama_early_10b</text>
<circle cx="346.1827085584315" cy="374.6920429109865" r="5" fill="#3469ac"><title>tinyllama_early_21b: 43.639%</title></circle>
<text x="353.1827085584315" y="367.6920429109865" font-size="10">tinyllama_early_21b</text>
<circle cx="404.2920727387907" cy="267.98776854225014" r="5" fill="#3469ac"><title>weborganizer_dclm: 54.444%</title></circle>
<text x="411.2920727387907" y="260.98776854225014" font-size="10">weborganizer_dclm</text>
<circle cx="346.03223070857587" cy="300.03389366827344" r="5" fill="#3469ac"><title>dd_fineweb_edu_12500: 51.199%</title></circle>
<text x="353.03223070857587" y="293.03389366827344" font-size="10">dd_fineweb_edu_12500</text>
<circle cx="364.1449407419701" cy="291.80619811734095" r="5" fill="#3469ac"><title>dd_fineweb_edu_15000: 52.032%</title></circle>
<text x="371.1449407419701" y="284.80619811734095" font-size="10">dd_fineweb_edu_15000</text>
<circle cx="392.7246767411187" cy="291.35474389846956" r="5" fill="#3469ac"><title>dd_dclm_baseline_qc_20p_20000: 52.078%</title></circle>
<text x="399.7246767411187" y="284.35474389846956" font-size="10">dd_dclm_baseline_qc_20p_20000</text>
<circle cx="467.60803298199215" cy="245.6511702202188" r="5" fill="#3469ac"><title>dd_dclm_baseline_qc_20p_42500: 56.706%</title></circle>
<text x="474.60803298199215" y="238.6511702202188" font-size="10">dd_dclm_baseline_qc_20p_42500</text>
<circle cx="323.86406523298297" cy="303.6934901951265" r="5" fill="#3469ac"><title>dd_fineweb_edu_10000: 50.829%</title></circle>
<text x="330.86406523298297" y="296.6934901951265" font-size="10">dd_fineweb_edu_10000</text>
<circle cx="392.7246767411187" cy="287.9180391715366" r="5" fill="#3469ac"><title>dd_fineweb_edu_20000: 52.426%</title></circle>
<text x="399.7246767411187" y="280.9180391715366" font-size="10">dd_fineweb_edu_20000</text>
<circle cx="467.60803298199215" cy="261.79043484960414" r="5" fill="#3469ac"><title>dd_fineweb_edu_42500: 55.072%</title></circle>
<text x="474.60803298199215" y="254.79043484960414" font-size="10">dd_fineweb_edu_42500</text>
<circle cx="323.86406523298297" cy="321.1334997097374" r="5" fill="#3469ac"><title>dd_dclm_baseline_10000: 49.062%</title></circle>
<text x="330.86406523298297" y="314.1334997097374" font-size="10">dd_dclm_baseline_10000</text>
<circle cx="346.03223070857587" cy="304.9633750862769" r="5" fill="#3469ac"><title>dd_dclm_baseline_12500: 50.700%</title></circle>
<text x="353.03223070857587" y="297.9633750862769" font-size="10">dd_dclm_baseline_12500</text>
<circle cx="364.1449407419701" cy="299.7559351104482" r="5" fill="#3469ac"><title>dd_dclm_baseline_15000: 51.227%</title></circle>
<text x="371.1449407419701" y="292.7559351104482" font-size="10">dd_dclm_baseline_15000</text>
<circle cx="392.7246767411187" cy="297.63061500813967" r="5" fill="#3469ac"><title>dd_dclm_baseline_20000: 51.442%</title></circle>
<text x="399.7246767411187" y="290.63061500813967" font-size="10">dd_dclm_baseline_20000</text>
<circle cx="467.60803298199215" cy="262.4954794983206" r="5" fill="#3469ac"><title>dd_dclm_baseline_42500: 55.000%</title></circle>
<text x="474.60803298199215" y="255.4954794983206" font-size="10">dd_dclm_baseline_42500</text>
<circle cx="323.86406523298297" cy="292.0177327038034" r="5" fill="#3469ac"><title>dd_dclm_baseline_qc_7p_fw3_10000: 52.011%</title></circle>
<text x="330.86406523298297" y="285.0177327038034" font-size="10">dd_dclm_baseline_qc_7p_fw3_10000</text>
<circle cx="346.03223070857587" cy="287.33453394125917" r="5" fill="#3469ac"><title>dd_dclm_baseline_qc_7p_fw3_12500: 52.485%</title></circle>
<text x="353.03223070857587" y="280.33453394125917" font-size="10">dd_dclm_baseline_qc_7p_fw3_12500</text>
<circle cx="364.1449407419701" cy="283.67825681507713" r="5" fill="#3469ac"><title>dd_dclm_baseline_qc_7p_fw3_15000: 52.855%</title></circle>
<text x="371.1449407419701" y="276.67825681507713" font-size="10">dd_dclm_baseline_qc_7p_fw3_15000</text>
<circle cx="392.7246767411187" cy="275.3005721244132" r="5" fill="#3469ac"><title>dd_dclm_baseline_qc_7p_fw3_20000: 53.704%</title></circle>
<text x="399.7246767411187" y="268.3005721244132" font-size="10">dd_dclm_baseline_qc_7p_fw3_20000</text>
<circle cx="467.60803298199215" cy="248.98983230448448" r="5" fill="#3469ac"><title>dd_dclm_baseline_qc_7p_fw3_42500: 56.368%</title></circle>
<text x="474.60803298199215" y="241.98983230448448" font-size="10">dd_dclm_baseline_qc_7p_fw3_42500</text>
<circle cx="404.2920727387907" cy="260.95532072759977" r="5" fill="#3469ac"><title>weborganizer_domain_mix: 55.156%</title></circle>
<text x="411.2920727387907" y="253.95532072759977" font-size="10">weborganizer_domain_mix</text>
<circle cx="566.7478766319374" cy="163.49159275939212" r="5" fill="#d47416"><title>phi_1_5: 65.026%</title></circle>
<text x="573.7478766319374" y="156.49159275939212" font-size="10">phi_1_5</text>
<circle cx="577.4072045161824" cy="302.04413813826363" r="5" fill="#3469ac"><title>opt_1_3b: 50.996%</title></circle>
<text x="584.4072045161824" y="295.04413813826363" font-size="10">opt_1_3b</text>
<circle cx="643.1566456735138" cy="262.5599734805295" r="5" fill="#3469ac"><title>falcon_rw_1b: 54.994%</title></circle>
<text x="650.1566456735138" y="255.5599734805295" font-size="10">falcon_rw_1b</text>
<circle cx="384.87403235263696" cy="370.340722279885" r="5" fill="#3469ac"><title>tinyllama_early_31b: 44.079%</title></circle>
<text x="391.87403235263696" y="363.340722279885" font-size="10">tinyllama_early_31b</text>
<circle cx="455.3241955755543" cy="356.28438179742216" r="5" fill="#3469ac"><title>tinyllama_early_63b: 45.503%</title></circle>
<text x="462.3241955755543" y="349.28438179742216" font-size="10">tinyllama_early_63b</text>
<circle cx="506.0720970502958" cy="350.04444400453383" r="5" fill="#3469ac"><title>tinyllama_early_105b: 46.135%</title></circle>
<text x="513.0720970502957" y="343.04444400453383" font-size="10">tinyllama_early_105b</text>
<circle cx="661.7087214695907" cy="329.0309067472864" r="5" fill="#3469ac"><title>tinyllama_503b: 48.263%</title></circle>
<text x="668.7087214695907" y="322.0309067472864" font-size="10">tinyllama_503b</text>
<circle cx="729.9750448880474" cy="309.48557120299847" r="5" fill="#3469ac"><title>tinyllama_1t: 50.242%</title></circle>
<text x="736.9750448880474" y="302.48557120299847" font-size="10">tinyllama_1t</text>
<circle cx="770.2559203970345" cy="300.32969754815974" r="5" fill="#3469ac"><title>tinyllama_1_5t: 51.169%</title></circle>
<text x="777.2559203970345" y="293.32969754815974" font-size="10">tinyllama_1_5t</text>
<circle cx="798.8356563961831" cy="296.4501106369267" r="5" fill="#3469ac"><title>tinyllama_2t: 51.562%</title></circle>
<text x="805.8356563961831" y="289.4501106369267" font-size="10">tinyllama_2t</text>
<circle cx="821.0038218717759" cy="273.4433526978207" r="5" fill="#3469ac"><title>tinyllama_2_5t: 53.892%</title></circle>
<text x="828.0038218717759" y="266.4433526978207" font-size="10">tinyllama_2_5t</text>
<text x="540" y="515" text-anchor="middle" font-size="14">6 × total parameters × training tokens (proxy FLOPs; log scale)</text>
<text x="85" y="539" font-size="12">Dashed line: point-estimate frontier within evaluated natural-corpus candidates only; not global SOTA.</text>
<text x="85" y="555" font-size="12">Orange: teacher/synthetic reference. Data construction and experiment-search compute excluded. See paired intervals in JSON.</text>
</g></svg>
